<svg width="16" height="17" viewBox="0 0 16 17" fill="none" xmlns="http://www.w3.org/2000/svg">
<path d="M1.72159 10.2216C2.6724 10.2216 3.44319 9.45081 3.44319 8.5C3.44319 7.54919 2.6724 6.77841 1.72159 6.77841C0.770784 6.77841 0 7.54919 0 8.5C0 9.45081 0.770784 10.2216 1.72159 10.2216Z" fill="#4B4B4B"/>
<path d="M8.00001 10.2216C8.95082 10.2216 9.7216 9.45081 9.7216 8.5C9.7216 7.54919 8.95082 6.77841 8.00001 6.77841C7.0492 6.77841 6.27841 7.54919 6.27841 8.5C6.27841 9.45081 7.0492 10.2216 8.00001 10.2216Z" fill="#4B4B4B"/>
<path d="M14.2784 10.2216C15.2292 10.2216 16 9.45081 16 8.5C16 7.54919 15.2292 6.77841 14.2784 6.77841C13.3276 6.77841 12.5568 7.54919 12.5568 8.5C12.5568 9.45081 13.3276 10.2216 14.2784 10.2216Z" fill="#4B4B4B"/>
</svg>
